# xmcd database file
#
# Track frame offsets:
# 150
# 18009
# 41322
#
# Disc length: 779 seconds
#
# Revision: 0
# Processed by: cddbd v1.5.1PL0 Copyright (c) Steve Scherf et al.
# Submitted via: CD-Runner 2005.10
#
DISCID=12030903
DTITLE=Nickel Creek - The Lighthouse's Tale
DYEAR=2002
DGENRE=Bluegrass
TTITLE0=The Lighthouse's Tale (Radio Edit)
TTITLE1=The Fox (Live)
TTITLE2=Let It Fall (Live)
EXTD=
EXTT0=
EXTT1=
EXTT2=
PLAYORDER=
